<svg width="67" height="37" viewBox="0 0 67 37" fill="none" xmlns="http://www.w3.org/2000/svg">
<g clip-path="url(#clip0_1_4)">
<rect width="67" height="37" fill="white"/>
<path d="M60.8913 23.1141C59.2432 19.19 55.8363 15.7188 51.1512 13.1901C46.4661 10.6614 40.7391 9.20265 34.7777 9.01961C28.8163 8.83656 22.9214 9.93844 17.924 12.1699C12.9267 14.4013 9.07913 17.6497 6.92385 21.457L9.58146 22.1613C11.5212 18.7347 14.984 15.8112 19.4816 13.8029C23.9792 11.7946 29.2847 10.8029 34.6499 10.9676C40.0152 11.1324 45.1695 12.4452 49.3861 14.7211C53.6027 16.9969 56.6688 20.121 58.1522 23.6527L60.8913 23.1141Z" fill="#D9D9D9"/>
<rect width="4.59179" height="2.63171" transform="matrix(0.566406 -0.824126 -0.824126 -0.566406 7.40395 25.2748)" fill="#D9D9D9"/>
<rect width="7.13576" height="2.68137" transform="matrix(-0.48481 -0.87462 -0.87462 0.48481 63.7612 28.2411)" fill="#D9D9D9"/>
<path d="M44.7175 4.40326C37.8734 3.90771 30.8924 3.86863 24.0206 4.2874L25.4258 8.54362C31.2789 8.18693 37.2251 8.22022 43.0547 8.6423L44.7175 4.40326Z" fill="#FF0000"/>
<path d="M20.1972 6.544C21.0612 6.544 22.1279 7.10933 23.3972 8.24C25.1252 10.2453 25.9892 12.3253 25.9892 14.48C25.9892 16.624 24.9385 18.0907 22.8372 18.88L22.3892 18.944C21.2585 18.944 20.3732 18.1227 19.7332 16.48H19.7012C19.3279 17.8133 18.8265 18.48 18.1972 18.48H18.1012C17.2692 18.48 16.6985 16.912 16.3892 13.776V12.848C16.4105 11.7387 16.7252 11.104 17.3332 10.944C17.5039 10.944 17.6585 11.1093 17.7972 11.44C17.4879 11.8667 17.3332 12.368 17.3332 12.944V13.088C17.3332 15.0613 17.6212 16.528 18.1972 17.488C18.6239 17.1787 18.9385 15.9093 19.1412 13.68C19.1412 11.8773 19.2745 10.976 19.5412 10.976L19.7012 10.944C20.0532 10.944 20.2292 11.2907 20.2292 11.984L20.1332 13.744C20.1332 14.928 20.5012 16.16 21.2372 17.44C21.5999 17.8027 21.9679 17.984 22.3412 17.984C22.9492 17.984 23.5999 17.6053 24.2932 16.848C24.7839 16.1973 25.0292 15.376 25.0292 14.384C25.0292 12.1867 24.0639 10.1707 22.1332 8.336C21.6319 7.93067 20.8639 7.6 19.8292 7.344L19.7012 7.04C19.7759 6.70933 19.9412 6.544 20.1972 6.544ZM29.1687 11.968C29.958 11.968 30.5554 12.5547 30.9607 13.728L31.0247 14.064C31.0247 15.2053 30.4914 16.3733 29.4247 17.568C28.998 17.9627 28.566 18.16 28.1287 18.16C27.4887 18.16 27.0354 17.792 26.7687 17.056C26.6727 16.7147 26.6247 16.416 26.6247 16.16V15.968C26.6247 14.2827 27.238 13.0027 28.4647 12.128C28.678 12.0213 28.9127 11.968 29.1687 11.968ZM27.5687 16.128C27.5687 16.8533 27.7554 17.216 28.1287 17.216C28.9074 17.216 29.5527 16.2187 30.0647 14.224V13.92C29.8834 13.2587 29.5474 12.928 29.0567 12.928C28.8647 12.928 28.7687 13.0613 28.7687 13.328C28.7687 13.5093 28.5554 13.6533 28.1287 13.76C27.7554 14.3893 27.5687 15.1787 27.5687 16.128ZM33.8137 12.608C34.7204 12.6827 35.1737 13.1253 35.1737 13.936L35.2057 14.144L35.1737 16.64C35.1737 16.928 35.339 17.3173 35.6697 17.808V17.84C35.5844 18.1493 35.4297 18.304 35.2057 18.304C34.5444 18.0267 34.2137 17.44 34.2137 16.544V16.336L34.1657 16.304L34.2137 16.24V16.208L34.2617 14C34.2617 13.6907 34.1284 13.536 33.8617 13.536H33.6697C33.1364 13.7493 32.8697 14.9173 32.8697 17.04C32.8697 17.776 32.683 18.144 32.3097 18.144C32.0217 18.144 31.8724 17.9627 31.8617 17.6V16C31.8617 13.9307 32.043 12.896 32.4057 12.896L32.5657 12.848L32.9017 12.896C33.1897 12.704 33.4937 12.608 33.8137 12.608ZM39.9312 9.216C40.1125 9.216 40.2779 9.38667 40.4272 9.728L39.7232 14.176V15.424C39.7232 16.7253 39.9259 17.376 40.3312 17.376C40.5979 17.504 40.7312 17.6747 40.7312 17.888C40.7312 18.1333 40.5179 18.2773 40.0912 18.32C39.6219 18.32 39.2539 17.888 38.9872 17.024H38.8272C38.4325 17.888 37.9525 18.32 37.3872 18.32C36.7259 18.32 36.3259 17.8187 36.1872 16.816C36.1872 15.6533 36.9659 14.4213 38.5232 13.12C38.8325 13.12 38.9872 12.688 38.9872 11.824C39.2219 10.0853 39.5365 9.216 39.9312 9.216ZM37.1312 16.688V17.12L37.3872 17.376H37.4832C37.8245 17.376 38.2245 16.3467 38.6832 14.288H38.5872C37.6165 15.2587 37.1312 16.0587 37.1312 16.688ZM42.7362 12.256C43.1629 12.2667 43.8829 13.0133 44.8962 14.496L44.9282 14.768C44.9282 15.0667 44.1975 15.296 42.7362 15.456L42.6882 15.504V15.568C42.9122 16.528 43.1469 17.008 43.3922 17.008H43.5842C43.9255 17.008 44.4429 16.64 45.1362 15.904H45.2322C45.4455 15.904 45.6109 16.0587 45.7282 16.368C45.7282 16.624 45.2802 17.0667 44.3842 17.696C44.1495 17.8347 43.8669 17.936 43.5362 18C42.6722 18 42.0695 17.1893 41.7282 15.568C41.2375 15.4933 40.9922 15.2907 40.9922 14.96C40.9922 14.7253 41.1735 14.5707 41.5362 14.496V14.56L41.6962 14.496V14.096C41.6962 12.8693 42.0429 12.256 42.7362 12.256ZM42.8322 13.408H42.6882L42.6242 14V14.496H42.6882C43.2855 14.4747 43.5842 14.4107 43.5842 14.304C43.3069 13.888 43.0562 13.5893 42.8322 13.408ZM48.4551 11.696C49.1271 11.696 49.5271 12.1653 49.6551 13.104V13.248C49.6551 14.2827 49.1217 15.232 48.0551 16.096C48.6737 16.704 49.7564 17.008 51.3031 17.008C51.5377 17.0827 51.6551 17.248 51.6551 17.504C51.6551 17.792 51.4684 17.936 51.0951 17.936C50.0497 17.936 48.9511 17.6693 47.7991 17.136V17.6C47.7991 18.6987 47.5644 19.248 47.0951 19.248C46.7644 19.248 46.5991 18.6133 46.5991 17.344V16.096L46.5511 15.648L46.6631 15.136L46.5511 13.6V13.536C46.5511 13.248 46.7004 13.0507 46.9991 12.944C47.4151 12.112 47.9004 11.696 48.4551 11.696ZM47.6551 15.2C47.9644 15.2 48.3111 14.6453 48.6951 13.536V12.848L48.5031 12.64H48.3591C47.8897 12.96 47.6551 13.8133 47.6551 15.2ZM23.6034 19.544C24.4674 19.544 25.5341 20.1093 26.8034 21.24C28.5314 23.2453 29.3954 25.3253 29.3954 27.48C29.3954 29.624 28.3448 31.0907 26.2434 31.88L25.7954 31.944C24.6648 31.944 23.7794 31.1227 23.1394 29.48H23.1074C22.7341 30.8133 22.2328 31.48 21.6034 31.48H21.5074C20.6754 31.48 20.1048 29.912 19.7954 26.776V25.848C19.8168 24.7387 20.1314 24.104 20.7394 23.944C20.9101 23.944 21.0648 24.1093 21.2034 24.44C20.8941 24.8667 20.7394 25.368 20.7394 25.944V26.088C20.7394 28.0613 21.0274 29.528 21.6034 30.488C22.0301 30.1787 22.3448 28.9093 22.5474 26.68C22.5474 24.8773 22.6808 23.976 22.9474 23.976L23.1074 23.944C23.4594 23.944 23.6354 24.2907 23.6354 24.984L23.5394 26.744C23.5394 27.928 23.9074 29.16 24.6434 30.44C25.0061 30.8027 25.3741 30.984 25.7474 30.984C26.3554 30.984 27.0061 30.6053 27.6994 29.848C28.1901 29.1973 28.4354 28.376 28.4354 27.384C28.4354 25.1867 27.4701 23.1707 25.5394 21.336C25.0381 20.9307 24.2701 20.6 23.2354 20.344L23.1074 20.04C23.1821 19.7093 23.3474 19.544 23.6034 19.544ZM32.5749 24.968C33.3643 24.968 33.9616 25.5547 34.3669 26.728L34.4309 27.064C34.4309 28.2053 33.8976 29.3733 32.8309 30.568C32.4043 30.9627 31.9723 31.16 31.5349 31.16C30.8949 31.16 30.4416 30.792 30.1749 30.056C30.0789 29.7147 30.0309 29.416 30.0309 29.16V28.968C30.0309 27.2827 30.6443 26.0027 31.8709 25.128C32.0843 25.0213 32.3189 24.968 32.5749 24.968ZM30.9749 29.128C30.9749 29.8533 31.1616 30.216 31.5349 30.216C32.3136 30.216 32.9589 29.2187 33.4709 27.224V26.92C33.2896 26.2587 32.9536 25.928 32.4629 25.928C32.2709 25.928 32.1749 26.0613 32.1749 26.328C32.1749 26.5093 31.9616 26.6533 31.5349 26.76C31.1616 27.3893 30.9749 28.1787 30.9749 29.128ZM37.2519 24.696C37.9239 24.696 38.3239 25.1653 38.4519 26.104V26.248C38.4519 27.2827 37.9186 28.232 36.8519 29.096C37.4706 29.704 38.5533 30.008 40.0999 30.008C40.3346 30.0827 40.4519 30.248 40.4519 30.504C40.4519 30.792 40.2653 30.936 39.8919 30.936C38.8466 30.936 37.7479 30.6693 36.5959 30.136V30.6C36.5959 31.6987 36.3613 32.248 35.8919 32.248C35.5613 32.248 35.3959 31.6133 35.3959 30.344V29.096L35.3479 28.648L35.4599 28.136L35.3479 26.6V26.536C35.3479 26.248 35.4973 26.0507 35.7959 25.944C36.2119 25.112 36.6973 24.696 37.2519 24.696ZM36.4519 28.2C36.7613 28.2 37.1079 27.6453 37.4919 26.536V25.848L37.2999 25.64H37.1559C36.6866 25.96 36.4519 26.8133 36.4519 28.2ZM41.8957 22.184C42.1944 22.2907 42.3437 22.456 42.3437 22.68L42.5037 28.776V30.744C42.5037 31.1067 42.349 31.288 42.0397 31.288H41.8317C41.6397 31.16 41.5437 31.0107 41.5437 30.84V28.984L41.3997 22.648C41.3997 22.3813 41.565 22.2267 41.8957 22.184ZM47.4156 22.216C47.5969 22.216 47.7622 22.3867 47.9116 22.728L47.2076 27.176V28.424C47.2076 29.7253 47.4102 30.376 47.8156 30.376C48.0822 30.504 48.2156 30.6747 48.2156 30.888C48.2156 31.1333 48.0022 31.2773 47.5756 31.32C47.1062 31.32 46.7382 30.888 46.4716 30.024H46.3116C45.9169 30.888 45.4369 31.32 44.8716 31.32C44.2102 31.32 43.8102 30.8187 43.6716 29.816C43.6716 28.6533 44.4502 27.4213 46.0076 26.12C46.3169 26.12 46.4716 25.688 46.4716 24.824C46.7062 23.0853 47.0209 22.216 47.4156 22.216ZM44.6156 29.688V30.12L44.8716 30.376H44.9676C45.3089 30.376 45.7089 29.3467 46.1676 27.288H46.0716C45.1009 28.2587 44.6156 29.0587 44.6156 29.688Z" fill="black"/>
</g>
<defs>
<clipPath id="clip0_1_4">
<rect width="67" height="37" fill="white"/>
</clipPath>
</defs>
</svg>
